# xmcd CD database file generated by Grip 3.2.0
# 
# Track frame offsets:
#       187
#       25242
#       43872
#       67300
#       90017
#       103052
#       118215
#       132182
#       159127
#       170440
# 
# Disc length: 2565 seconds
# 
# Revision: 2
# Processed by: cddbd v1.5.2PL0 Copyright (c) Steve Scherf et al.
# Submitted via: Grip 3.2.0
# 
DISCID=7f0a030a
DTITLE=Various Artist - Best Of The Blues
DYEAR=1993
DGENRE=Blues
TTITLE0=B.B. King - Thrill Is Gone
TTITLE1=Bobby Bland - Stormy Monday
TTITLE2=John Lee Hooker - Lonesome Mood
TTITLE3=Brownie McGhee and Sonny Terry - Brownie's New Blues
TTITLE4=T-Bone Walker - Why My Baby (Keep On Bothering Me)
TTITLE5=Big Joe Turner - Little Bittie Gal's Blues
TTITLE6=Memphis Minnie McCoy - Moanin' The Blues
TTITLE7=B.B. King and Bobby Bland - I Like To Live The Love
TTITLE8=Bobby Bland - Turn On Your Love Light
TTITLE9=B.B. King (with Carole King on Piano) - Chains And Things
EXTD=
EXTT0=B. B. King
EXTT1=Bobby Bland
EXTT2=John Lee Hooker
EXTT3=Brownie McGhee and Sonny Terry
EXTT4=T-Bone Walker
EXTT5=Big Joe Turner
EXTT6=Memphis Millie McCoy
EXTT7=B. B. King and Bobby Bland
EXTT8=Bobby Bland
EXTT9=B. B. King with Carole King on Piano
PLAYORDER=
